<svg width="349" height="110" viewBox="0 0 349 110" fill="none" xmlns="http://www.w3.org/2000/svg">
<path d="M83.862 56.1482C81.1287 56.1482 78.662 55.5648 76.462 54.3982C74.2953 53.2315 72.5787 51.5648 71.312 49.3982C70.0787 47.2315 69.462 44.6982 69.462 41.7982C69.462 38.9315 70.0953 36.4148 71.362 34.2482C72.6287 32.0482 74.362 30.3648 76.562 29.1982C78.762 28.0315 81.2287 27.4482 83.962 27.4482C86.6953 27.4482 89.162 28.0315 91.362 29.1982C93.562 30.3648 95.2953 32.0482 96.562 34.2482C97.8287 36.4148 98.462 38.9315 98.462 41.7982C98.462 44.6648 97.812 47.1982 96.512 49.3982C95.2453 51.5648 93.4953 53.2315 91.262 54.3982C89.062 55.5648 86.5953 56.1482 83.862 56.1482ZM83.862 48.7482C85.4953 48.7482 86.8787 48.1482 88.012 46.9482C89.1787 45.7482 89.762 44.0315 89.762 41.7982C89.762 39.5648 89.1953 37.8482 88.062 36.6482C86.962 35.4482 85.5953 34.8482 83.962 34.8482C82.2953 34.8482 80.912 35.4482 79.812 36.6482C78.712 37.8148 78.162 39.5315 78.162 41.7982C78.162 44.0315 78.6953 45.7482 79.762 46.9482C80.862 48.1482 82.2287 48.7482 83.862 48.7482ZM138.598 27.5482C142.065 27.5482 144.815 28.5982 146.848 30.6982C148.915 32.7982 149.948 35.7148 149.948 39.4482V55.7482H141.448V40.5982C141.448 38.7982 140.965 37.4148 139.998 36.4482C139.065 35.4482 137.765 34.9482 136.098 34.9482C134.431 34.9482 133.115 35.4482 132.148 36.4482C131.215 37.4148 130.748 38.7982 130.748 40.5982V55.7482H122.248V40.5982C122.248 38.7982 121.765 37.4148 120.798 36.4482C119.865 35.4482 118.565 34.9482 116.898 34.9482C115.231 34.9482 113.915 35.4482 112.948 36.4482C112.015 37.4148 111.548 38.7982 111.548 40.5982V55.7482H102.998V27.8482H111.548V31.3482C112.415 30.1815 113.548 29.2648 114.948 28.5982C116.348 27.8982 117.931 27.5482 119.698 27.5482C121.798 27.5482 123.665 27.9982 125.298 28.8982C126.965 29.7982 128.265 31.0815 129.198 32.7482C130.165 31.2148 131.481 29.9648 133.148 28.9982C134.815 28.0315 136.631 27.5482 138.598 27.5482ZM182.228 41.3482C182.228 42.1482 182.178 42.9815 182.078 43.8482H162.728C162.861 45.5815 163.411 46.9148 164.378 47.8482C165.378 48.7482 166.594 49.1982 168.028 49.1982C170.161 49.1982 171.644 48.2982 172.478 46.4982H181.578C181.111 48.3315 180.261 49.9815 179.028 51.4482C177.828 52.9148 176.311 54.0648 174.478 54.8982C172.644 55.7315 170.594 56.1482 168.328 56.1482C165.594 56.1482 163.161 55.5648 161.028 54.3982C158.894 53.2315 157.228 51.5648 156.028 49.3982C154.828 47.2315 154.228 44.6982 154.228 41.7982C154.228 38.8982 154.811 36.3648 155.978 34.1982C157.178 32.0315 158.844 30.3648 160.978 29.1982C163.111 28.0315 165.561 27.4482 168.328 27.4482C171.028 27.4482 173.428 28.0148 175.528 29.1482C177.628 30.2815 179.261 31.8982 180.428 33.9982C181.628 36.0982 182.228 38.5482 182.228 41.3482ZM173.478 39.0982C173.478 37.6315 172.978 36.4648 171.978 35.5982C170.978 34.7315 169.728 34.2982 168.228 34.2982C166.794 34.2982 165.578 34.7148 164.578 35.5482C163.611 36.3815 163.011 37.5648 162.778 39.0982H173.478ZM199.438 56.1482C196.705 56.1482 194.238 55.5648 192.038 54.3982C189.872 53.2315 188.155 51.5648 186.888 49.3982C185.655 47.2315 185.038 44.6982 185.038 41.7982C185.038 38.9315 185.672 36.4148 186.938 34.2482C188.205 32.0482 189.938 30.3648 192.138 29.1982C194.338 28.0315 196.805 27.4482 199.538 27.4482C202.272 27.4482 204.738 28.0315 206.938 29.1982C209.138 30.3648 210.872 32.0482 212.138 34.2482C213.405 36.4148 214.038 38.9315 214.038 41.7982C214.038 44.6648 213.388 47.1982 212.088 49.3982C210.822 51.5648 209.072 53.2315 206.838 54.3982C204.638 55.5648 202.172 56.1482 199.438 56.1482ZM199.438 48.7482C201.072 48.7482 202.455 48.1482 203.588 46.9482C204.755 45.7482 205.338 44.0315 205.338 41.7982C205.338 39.5648 204.772 37.8482 203.638 36.6482C202.538 35.4482 201.172 34.8482 199.538 34.8482C197.872 34.8482 196.488 35.4482 195.388 36.6482C194.288 37.8148 193.738 39.5315 193.738 41.7982C193.738 44.0315 194.272 45.7482 195.338 46.9482C196.438 48.1482 197.805 48.7482 199.438 48.7482ZM235.574 27.5482C238.841 27.5482 241.441 28.6148 243.374 30.7482C245.341 32.8482 246.324 35.7482 246.324 39.4482V55.7482H237.824V40.5982C237.824 38.7315 237.341 37.2815 236.374 36.2482C235.407 35.2148 234.107 34.6982 232.474 34.6982C230.841 34.6982 229.541 35.2148 228.574 36.2482C227.607 37.2815 227.124 38.7315 227.124 40.5982V55.7482H218.574V27.8482H227.124V31.5482C227.991 30.3148 229.157 29.3482 230.624 28.6482C232.091 27.9148 233.741 27.5482 235.574 27.5482ZM278.566 41.3482C278.566 42.1482 278.516 42.9815 278.416 43.8482H259.066C259.199 45.5815 259.749 46.9148 260.716 47.8482C261.716 48.7482 262.932 49.1982 264.366 49.1982C266.499 49.1982 267.982 48.2982 268.816 46.4982H277.916C277.449 48.3315 276.599 49.9815 275.366 51.4482C274.166 52.9148 272.649 54.0648 270.816 54.8982C268.982 55.7315 266.932 56.1482 264.666 56.1482C261.932 56.1482 259.499 55.5648 257.366 54.3982C255.232 53.2315 253.566 51.5648 252.366 49.3982C251.166 47.2315 250.566 44.6982 250.566 41.7982C250.566 38.8982 251.149 36.3648 252.316 34.1982C253.516 32.0315 255.182 30.3648 257.316 29.1982C259.449 28.0315 261.899 27.4482 264.666 27.4482C267.366 27.4482 269.766 28.0148 271.866 29.1482C273.966 30.2815 275.599 31.8982 276.766 33.9982C277.966 36.0982 278.566 38.5482 278.566 41.3482ZM269.816 39.0982C269.816 37.6315 269.316 36.4648 268.316 35.5982C267.316 34.7315 266.066 34.2982 264.566 34.2982C263.132 34.2982 261.916 34.7148 260.916 35.5482C259.949 36.3815 259.349 37.5648 259.116 39.0982H269.816Z" fill="#4B0096"/>
<path d="M85.588 65.8962C87.52 65.8962 89.2373 66.3255 90.74 67.1842C92.2427 68.0122 93.408 69.2542 94.236 70.9102C95.0947 72.5355 95.524 74.4982 95.524 76.7982V91.7482H89.084V77.6722C89.084 75.6482 88.578 74.0995 87.566 73.0262C86.554 71.9222 85.174 71.3702 83.426 71.3702C81.6473 71.3702 80.2367 71.9222 79.194 73.0262C78.182 74.0995 77.676 75.6482 77.676 77.6722V91.7482H71.236V57.7082H77.676V69.4382C78.504 68.3342 79.608 67.4755 80.988 66.8622C82.368 66.2182 83.9013 65.8962 85.588 65.8962ZM112.964 92.1622C110.511 92.1622 108.303 91.6255 106.34 90.5522C104.377 89.4482 102.829 87.8995 101.694 85.9062C100.59 83.9128 100.038 81.6128 100.038 79.0062C100.038 76.3995 100.605 74.0995 101.74 72.1062C102.905 70.1128 104.485 68.5795 106.478 67.5062C108.471 66.4022 110.695 65.8502 113.148 65.8502C115.601 65.8502 117.825 66.4022 119.818 67.5062C121.811 68.5795 123.375 70.1128 124.51 72.1062C125.675 74.0995 126.258 76.3995 126.258 79.0062C126.258 81.6128 125.66 83.9128 124.464 85.9062C123.299 87.8995 121.704 89.4482 119.68 90.5522C117.687 91.6255 115.448 92.1622 112.964 92.1622ZM112.964 86.5502C114.129 86.5502 115.218 86.2742 116.23 85.7222C117.273 85.1395 118.101 84.2808 118.714 83.1462C119.327 82.0115 119.634 80.6315 119.634 79.0062C119.634 76.5835 118.99 74.7282 117.702 73.4402C116.445 72.1215 114.896 71.4622 113.056 71.4622C111.216 71.4622 109.667 72.1215 108.41 73.4402C107.183 74.7282 106.57 76.5835 106.57 79.0062C106.57 81.4288 107.168 83.2995 108.364 84.6182C109.591 85.9062 111.124 86.5502 112.964 86.5502ZM155.04 66.2642V91.7482H148.554V88.5282C147.726 89.6322 146.637 90.5062 145.288 91.1502C143.969 91.7635 142.528 92.0702 140.964 92.0702C138.971 92.0702 137.207 91.6562 135.674 90.8282C134.141 89.9695 132.929 88.7275 132.04 87.1022C131.181 85.4462 130.752 83.4835 130.752 81.2142V66.2642H137.192V80.2942C137.192 82.3182 137.698 83.8822 138.71 84.9862C139.722 86.0595 141.102 86.5962 142.85 86.5962C144.629 86.5962 146.024 86.0595 147.036 84.9862C148.048 83.8822 148.554 82.3182 148.554 80.2942V66.2642H155.04ZM167.834 57.7082V91.7482H161.394V57.7082H167.834ZM172.541 78.9142C172.541 76.3382 173.047 74.0535 174.059 72.0602C175.102 70.0668 176.512 68.5335 178.291 67.4602C180.07 66.3868 182.048 65.8502 184.225 65.8502C185.881 65.8502 187.46 66.2182 188.963 66.9542C190.466 67.6595 191.662 68.6102 192.551 69.8062V57.7082H199.083V91.7482H192.551V87.9762C191.754 89.2335 190.634 90.2455 189.193 91.0122C187.752 91.7788 186.08 92.1622 184.179 92.1622C182.032 92.1622 180.07 91.6102 178.291 90.5062C176.512 89.4022 175.102 87.8535 174.059 85.8602C173.047 83.8362 172.541 81.5208 172.541 78.9142ZM192.597 79.0062C192.597 77.4422 192.29 76.1082 191.677 75.0042C191.064 73.8695 190.236 73.0108 189.193 72.4282C188.15 71.8148 187.031 71.5082 185.835 71.5082C184.639 71.5082 183.535 71.7995 182.523 72.3822C181.511 72.9648 180.683 73.8235 180.039 74.9582C179.426 76.0622 179.119 77.3808 179.119 78.9142C179.119 80.4475 179.426 81.7968 180.039 82.9622C180.683 84.0968 181.511 84.9708 182.523 85.5842C183.566 86.1975 184.67 86.5042 185.835 86.5042C187.031 86.5042 188.15 86.2128 189.193 85.6302C190.236 85.0168 191.064 84.1582 191.677 83.0542C192.29 81.9195 192.597 80.5702 192.597 79.0062ZM247.982 65.8962C251.11 65.8962 253.624 66.8622 255.526 68.7942C257.458 70.6955 258.424 73.3635 258.424 76.7982V91.7482H251.984V77.6722C251.984 75.6788 251.478 74.1608 250.466 73.1182C249.454 72.0448 248.074 71.5082 246.326 71.5082C244.578 71.5082 243.182 72.0448 242.14 73.1182C241.128 74.1608 240.622 75.6788 240.622 77.6722V91.7482H234.182V77.6722C234.182 75.6788 233.676 74.1608 232.664 73.1182C231.652 72.0448 230.272 71.5082 228.524 71.5082C226.745 71.5082 225.334 72.0448 224.292 73.1182C223.28 74.1608 222.774 75.6788 222.774 77.6722V91.7482H216.334V66.2642H222.774V69.3462C223.602 68.2728 224.66 67.4295 225.948 66.8162C227.266 66.2028 228.708 65.8962 230.272 65.8962C232.265 65.8962 234.044 66.3255 235.608 67.1842C237.172 68.0122 238.383 69.2082 239.242 70.7722C240.07 69.3002 241.266 68.1195 242.83 67.2302C244.424 66.3408 246.142 65.8962 247.982 65.8962ZM262.879 78.9142C262.879 76.3382 263.385 74.0535 264.397 72.0602C265.44 70.0668 266.835 68.5335 268.583 67.4602C270.362 66.3868 272.34 65.8502 274.517 65.8502C276.418 65.8502 278.074 66.2335 279.485 67.0002C280.926 67.7668 282.076 68.7328 282.935 69.8982V66.2642H289.421V91.7482H282.935V88.0222C282.107 89.2182 280.957 90.2148 279.485 91.0122C278.044 91.7788 276.372 92.1622 274.471 92.1622C272.324 92.1622 270.362 91.6102 268.583 90.5062C266.835 89.4022 265.44 87.8535 264.397 85.8602C263.385 83.8362 262.879 81.5208 262.879 78.9142ZM282.935 79.0062C282.935 77.4422 282.628 76.1082 282.015 75.0042C281.402 73.8695 280.574 73.0108 279.531 72.4282C278.488 71.8148 277.369 71.5082 276.173 71.5082C274.977 71.5082 273.873 71.7995 272.861 72.3822C271.849 72.9648 271.021 73.8235 270.377 74.9582C269.764 76.0622 269.457 77.3808 269.457 78.9142C269.457 80.4475 269.764 81.7968 270.377 82.9622C271.021 84.0968 271.849 84.9708 272.861 85.5842C273.904 86.1975 275.008 86.5042 276.173 86.5042C277.369 86.5042 278.488 86.2128 279.531 85.6302C280.574 85.0168 281.402 84.1582 282.015 83.0542C282.628 81.9195 282.935 80.5702 282.935 79.0062ZM310.799 91.7482L302.151 80.8922V91.7482H295.711V57.7082H302.151V77.0742L310.707 66.2642H319.079L307.855 79.0522L319.171 91.7482H310.799ZM346.264 78.4542C346.264 79.3742 346.203 80.2022 346.08 80.9382H327.45C327.603 82.7782 328.247 84.2195 329.382 85.2622C330.517 86.3048 331.912 86.8262 333.568 86.8262C335.96 86.8262 337.662 85.7988 338.674 83.7442H345.62C344.884 86.1975 343.473 88.2215 341.388 89.8162C339.303 91.3802 336.742 92.1622 333.706 92.1622C331.253 92.1622 329.045 91.6255 327.082 90.5522C325.15 89.4482 323.632 87.8995 322.528 85.9062C321.455 83.9128 320.918 81.6128 320.918 79.0062C320.918 76.3688 321.455 74.0535 322.528 72.0602C323.601 70.0668 325.104 68.5335 327.036 67.4602C328.968 66.3868 331.191 65.8502 333.706 65.8502C336.129 65.8502 338.291 66.3715 340.192 67.4142C342.124 68.4568 343.611 69.9442 344.654 71.8762C345.727 73.7775 346.264 75.9702 346.264 78.4542ZM339.594 76.6142C339.563 74.9582 338.965 73.6395 337.8 72.6582C336.635 71.6462 335.209 71.1402 333.522 71.1402C331.927 71.1402 330.578 71.6308 329.474 72.6122C328.401 73.5628 327.741 74.8968 327.496 76.6142H339.594Z" fill="#4B0096"/>
<path d="M12.0778 4.1935C20.5653 -0.829826 33.8274 2.01786 42.2826 11.6136C44.1082 13.6855 43.9086 16.845 41.8367 18.6706C39.7648 20.4962 36.6053 20.2966 34.7797 18.2247C31.6853 14.7129 28.1155 12.8823 24.9186 12.1595C21.7685 11.4473 18.8721 11.7924 17.171 12.7992C16.6 13.1372 15.9418 13.8234 15.3931 14.6792C14.8298 15.5577 14.3251 16.7017 14.1359 18.0198C13.9882 19.048 14.0232 20.2364 14.5375 21.4835C15.0512 22.7292 16.011 23.9557 17.5869 25.1146C18.5127 25.7955 20.2557 26.2531 23.8053 25.8378C26.6384 25.5063 29.7588 24.7479 33.3846 23.8666L33.4326 23.855C34.3129 23.641 35.2249 23.4193 36.1749 23.1933C45.1511 21.0572 57.2584 18.5199 67.4036 24.9124C72.3949 28.0574 75.624 32.3819 76.6631 37.2117C77.704 42.0504 76.4243 46.8995 73.3309 50.6542C67.0583 58.2676 54.7397 60.3461 40.6954 54.06C35.054 51.535 31.5878 51.9223 29.8543 52.6949C28.2206 53.4231 27.358 54.802 27.265 56.4543C27.1701 58.1411 27.9095 60.2846 30.0709 62.0029C32.213 63.7058 36.0672 65.1968 42.3105 64.6609C58.2738 63.2905 69.816 69.9438 74.3134 79.452C76.533 84.1445 76.9366 89.4534 75.084 94.2872C73.2114 99.1732 69.2167 103.099 63.5503 105.303C51.9742 109.804 40.6764 105.263 32.2118 99.3655C23.6568 93.4053 16.8527 85.3185 13.4726 80.283C11.9336 77.9902 12.5446 74.8839 14.8374 73.3449C17.1302 71.8058 20.2365 72.4169 21.7755 74.7097C24.6415 78.9794 30.6233 86.0711 37.9282 91.1604C45.3286 96.3162 52.9633 98.6902 59.9259 95.9825C63.2616 94.6853 64.9923 92.6758 65.7463 90.7085C66.5203 88.6888 66.4532 86.2215 65.2737 83.7279C62.9779 78.8742 56.0254 73.5203 43.1657 74.6242C34.9997 75.3252 28.431 73.474 23.8481 69.8309C19.2816 66.2007 16.9939 60.9906 17.2808 55.8925C17.5701 50.751 20.5059 45.9132 25.7833 43.5611C30.9638 41.2521 37.538 41.6909 44.7808 44.9326C56.4489 50.1551 63.2531 47.1597 65.6129 44.2954C66.8418 42.8039 67.2597 41.0485 66.8867 39.3149C66.5121 37.5732 65.2157 35.3533 62.0727 33.3729C58.9977 31.4354 55.472 30.7652 51.5514 30.8526C47.6451 30.9397 43.2834 31.7809 38.4899 32.9216C37.7143 33.1062 36.9189 33.3003 36.1139 33.4967L36.1135 33.4968C32.3921 34.4048 28.4714 35.3601 24.9674 35.77C20.7229 36.2667 15.7356 36.1661 11.6624 33.1707C5.38519 28.5545 3.42028 22.2906 4.23732 16.5988C4.99273 11.3365 8.14426 6.52154 12.0778 4.1935Z" stroke="#FF4949" stroke-width="2" stroke-linecap="round"/>
<path d="M9.01575 3.44533C17.5033 -1.578 30.7654 1.26969 39.2206 10.8654C41.0462 12.9373 40.8465 16.0968 38.7747 17.9224C36.7028 19.748 33.5433 19.5484 31.7177 17.4765C28.6233 13.9647 25.0535 12.1341 21.8566 11.4113C18.7065 10.6992 15.8101 11.0443 14.109 12.0511C13.538 12.389 12.8798 13.0752 12.3311 13.931C11.7678 14.8095 11.2631 15.9535 11.0738 17.2716C10.9262 18.2999 10.9612 19.4883 11.4755 20.7354C11.9892 21.981 12.9489 23.2075 14.5248 24.3665C15.4507 25.0473 17.1937 25.505 20.7433 25.0896C23.5764 24.7581 26.6968 23.9997 30.3226 23.1185L30.3706 23.1068C31.2509 22.8928 32.1629 22.6712 33.1129 22.4451C42.0891 20.309 54.1964 17.7717 64.3416 24.1642C69.3329 27.3092 72.562 31.6338 73.6011 36.4635C74.642 41.3023 73.3623 46.1513 70.2689 49.906C63.9962 57.5194 51.6777 59.5979 37.6334 53.3119C31.992 50.7869 28.5258 51.1741 26.7923 51.9467C25.1585 52.6749 24.2959 54.0538 24.203 55.7062C24.1081 57.3929 24.8474 59.5365 27.0089 61.2547C29.151 62.9576 33.0052 64.4487 39.2484 63.9127C55.2118 62.5424 66.7539 69.1956 71.2514 78.7039C73.471 83.3963 73.8746 88.7052 72.022 93.539C70.1494 98.425 66.1547 102.351 60.4883 104.554C48.9122 109.056 37.6144 104.515 29.1498 98.6173C20.5948 92.6571 13.7907 84.5703 10.4106 79.5348C8.87155 77.242 9.48259 74.1357 11.7754 72.5967C14.0682 71.0577 17.1745 71.6687 18.7135 73.9615C21.5795 78.2312 27.5613 85.323 34.8662 90.4123C42.2666 95.568 49.9013 97.942 56.8639 95.2343C60.1996 93.9371 61.9303 91.9276 62.6843 89.9603C63.4583 87.9406 63.3912 85.4733 62.2117 82.9797C59.9158 78.126 52.9634 72.7722 40.1037 73.8761C31.9377 74.5771 25.369 72.7258 20.7861 69.0827C16.2196 65.4525 13.9319 60.2424 14.2188 55.1444C14.5081 50.0028 17.4439 45.165 22.7213 42.8129C27.9018 40.504 34.476 40.9427 41.7188 44.1844C53.3869 49.4069 60.1911 46.4115 62.5509 43.5473C63.7798 42.0558 64.1977 40.3003 63.8247 38.5667C63.45 36.8251 62.1537 34.6052 59.0107 32.6248C55.9357 30.6872 52.41 30.017 48.4893 30.1044C44.5831 30.1915 40.2213 31.0328 35.4279 32.1734C34.6522 32.358 33.8569 32.5521 33.0519 32.7485L33.0515 32.7486C29.3301 33.6567 25.4094 34.6119 21.9054 35.0219C17.6608 35.5185 12.6736 35.418 8.60038 32.4226C2.32318 27.8063 0.358265 21.5424 1.17531 15.8507C1.93072 10.5883 5.08224 5.77337 9.01575 3.44533Z" stroke="#4B0096" stroke-width="2" stroke-linecap="round"/>
</svg>
